<?xml version="1.0" encoding="UTF-8"?><svg id="b" xmlns="http://www.w3.org/2000/svg" viewBox="0 0 295.08 295.08"><g id="c"><rect width="295.08" height="295.08" rx="54.43" ry="54.43" style="fill:#e0e049; stroke-width:0px;"/><path d="m187.99,88.81v56.64c0,8.9-7.28,16.18-16.18,16.18h-72.82s-32.36,32.36-32.36,32.36v-105.19c0-8.9,7.28-16.18,16.18-16.18h89c8.9,0,16.18,7.28,16.18,16.18Zm16.18,16.18h8.09c8.9,0,16.18,7.28,16.18,16.18v113.28s-32.36-32.36-32.36-32.36h-80.91c-8.9,0-16.18-7.28-16.18-16.18v-8.09s97.09,0,97.09,0c4.45,0,8.09-3.64,8.09-8.09v-64.73Z" style="fill:#18232a; fill-rule:evenodd; stroke-width:0px;"/></g></svg>
