<?xml version="1.0" encoding="UTF-8"?>
<svg id="Ebene_2" data-name="Ebene 2" xmlns="http://www.w3.org/2000/svg" viewBox="0 0 1803.13 509.16">
  <defs>
    <style>
      .cls-1 {
        fill: #F5F4F0;
      }

      .cls-1, .cls-2 {
        stroke-width: 0px;
      }

      .cls-2 {
        fill: #e0e049;
      }
    </style>
  </defs>
  <g id="Ebene_1-2" data-name="Ebene 1">
    <g>
      <g>
        <path class="cls-1" d="m117.76,110.13c7.34,0,13.55,2.64,18.64,7.91,5.27,5.08,7.91,11.3,7.91,18.64s-2.64,13.55-7.91,18.64c-5.08,5.08-11.3,7.62-18.64,7.62h-.28c-17.89,0-33.14,6.4-45.75,19.2-12.62,12.62-18.92,27.77-18.92,45.47v144.02c0,7.34-2.54,13.65-7.62,18.92-5.27,5.08-11.49,7.62-18.64,7.62s-13.65-2.54-18.92-7.62c-5.08-5.27-7.62-11.58-7.62-18.92v-235.52c0-7.34,2.54-13.55,7.62-18.64s11.58-7.91,18.92-7.91c6.21,0,11.67,1.98,16.38,5.93,4.7,3.77,7.81,8.66,9.32,14.68,19.58-13.36,41.32-20.05,65.23-20.05h.28Z"/>
        <path class="cls-1" d="m386.19,227.61c0,9.6-2.45,18.45-7.34,26.54-10.17,17.51-25.32,26.26-45.47,26.26l-131.31.28c0,17.89,6.31,33.14,18.92,45.75,12.61,12.62,27.86,18.92,45.75,18.92h1.98c21.84,0,39.25-8.94,52.24-26.83,7.53-10.35,17.41-13.36,29.65-9.04,8.47,2.82,14.02,8.47,16.66,16.94,2.63,8.66,1.31,16.57-3.95,23.72-23.54,32.01-55.07,48.01-94.6,48.01h-1.98c-32.19,0-59.77-11.39-82.74-34.17-22.78-22.59-34.36-49.98-34.73-82.18v-54.22c0-32.38,11.48-59.96,34.45-82.74,22.97-22.97,50.64-34.45,83.02-34.45h1.98c32.76,0,60.62,11.68,83.59,35.02,10.92,11.11,19.3,23.82,25.13,38.12,3.2,7.72,5.46,15.72,6.78,24,1.31,6.59,1.98,13.27,1.98,20.05Zm-184.12.28h131.03c-.19-17.69-6.5-32.94-18.92-45.75-12.81-12.61-27.96-18.92-45.47-18.92h-1.98c-17.89,0-33.14,6.31-45.75,18.92-12.62,12.62-18.92,27.77-18.92,45.47v.28Z"/>
        <path class="cls-1" d="m440.57,509.16c-7.34,0-13.65-2.54-18.92-7.62-5.08-5.27-7.62-11.58-7.62-18.92V136.11c0-7.15,2.54-13.36,7.62-18.64,5.27-5.08,11.58-7.62,18.92-7.62,13.55,0,22.03,6.68,25.42,20.05,19.77-13.36,41.6-20.05,65.52-20.05h1.98c32.38,0,60.05,11.49,83.02,34.45,22.97,22.97,34.45,50.65,34.45,83.02v53.94c0,32.38-11.49,60.06-34.45,83.02-22.97,22.97-50.65,34.45-83.02,34.45h-1.98c-23.54,0-45.09-6.5-64.67-19.49v103.36c0,7.34-2.54,13.65-7.62,18.92-5.27,5.08-11.49,7.62-18.64,7.62Zm26.26-227.89c0,17.89,6.31,33.14,18.92,45.75,12.61,12.62,27.86,18.92,45.75,18.92h1.98c17.69,0,32.85-6.31,45.47-18.92,12.8-12.61,19.2-27.86,19.2-45.75v-53.94c0-17.88-6.4-33.13-19.2-45.75-12.62-12.61-27.77-18.92-45.47-18.92h-1.98c-17.89,0-33.14,6.31-45.75,18.92-12.62,12.62-18.92,27.86-18.92,45.75v53.94Z"/>
        <path class="cls-1" d="m718.32,7.62c5.08,5.27,7.62,11.49,7.62,18.64v254.44c0,17.89,6.31,33.14,18.92,45.75,12.61,12.62,27.86,18.92,45.75,18.92h.28c7.34,0,13.55,2.54,18.64,7.62,5.27,5.27,7.91,11.49,7.91,18.64s-2.64,13.65-7.91,18.92c-5.08,5.08-11.3,7.62-18.64,7.62h-.28c-32.38,0-60.06-11.48-83.02-34.45-22.97-22.97-34.45-50.64-34.45-83.02V26.26c0-7.15,2.54-13.36,7.62-18.64,5.27-5.08,11.58-7.62,18.92-7.62s13.36,2.54,18.64,7.62Z"/>
        <path class="cls-1" d="m876.34,75.68c-5.84,5.84-12.81,8.75-20.9,8.75s-15.35-2.92-21.18-8.75c-5.84-5.83-8.75-12.8-8.75-20.9s2.92-15.34,8.75-21.18c5.83-5.83,12.89-8.75,21.18-8.75s15.06,2.92,20.9,8.75c5.83,5.84,8.75,12.9,8.75,21.18s-2.92,15.06-8.75,20.9Zm-39.82,314.87c-5.08-5.27-7.62-11.58-7.62-18.92v-235.23c0-7.34,2.54-13.55,7.62-18.64,5.27-5.08,11.58-7.62,18.92-7.62s13.36,2.54,18.64,7.62c5.08,5.08,7.62,11.3,7.62,18.64v235.23c0,7.34-2.54,13.65-7.62,18.92-5.27,5.08-11.49,7.62-18.64,7.62s-13.65-2.54-18.92-7.62Z"/>
        <path class="cls-1" d="m1149.85,227.61c0,9.6-2.45,18.45-7.34,26.54-10.17,17.51-25.32,26.26-45.47,26.26l-131.31.28c0,17.89,6.31,33.14,18.92,45.75,12.61,12.62,27.86,18.92,45.75,18.92h1.98c21.84,0,39.25-8.94,52.24-26.83,7.53-10.35,17.41-13.36,29.65-9.04,8.47,2.82,14.02,8.47,16.66,16.94,2.63,8.66,1.31,16.57-3.95,23.72-23.54,32.01-55.07,48.01-94.6,48.01h-1.98c-32.19,0-59.77-11.39-82.74-34.17-22.78-22.59-34.36-49.98-34.73-82.18v-54.22c0-32.38,11.48-59.96,34.45-82.74,22.97-22.97,50.64-34.45,83.02-34.45h1.98c32.76,0,60.62,11.68,83.59,35.02,10.92,11.11,19.3,23.82,25.13,38.12,3.2,7.72,5.46,15.72,6.78,24,1.31,6.59,1.98,13.27,1.98,20.05Zm-184.12.28h131.03c-.19-17.69-6.5-32.94-18.92-45.75-12.81-12.61-27.96-18.92-45.47-18.92h-1.98c-17.89,0-33.14,6.31-45.75,18.92-12.61,12.62-18.92,27.77-18.92,45.47v.28Z"/>
        <path class="cls-1" d="m1297.14,109.29c32.38,0,60.05,11.49,83.02,34.45,22.97,22.97,34.45,50.65,34.45,83.02v144.87c0,7.34-2.64,13.65-7.91,18.92s-11.3,7.62-18.64,7.62-13.55-2.54-18.64-7.62c-5.08-5.27-7.62-11.58-7.62-18.92v-144.87c0-17.88-6.4-33.13-19.2-45.75-12.61-12.61-27.77-18.92-45.47-18.92h-1.98c-17.89,0-33.14,6.31-45.75,18.92-12.61,12.62-18.92,27.86-18.92,45.75v144.87c0,7.34-2.54,13.65-7.62,18.92-5.27,5.08-11.48,7.62-18.64,7.62s-13.65-2.54-18.92-7.62c-5.08-5.27-7.62-11.58-7.62-18.92v-236.08c0-7.15,2.54-13.36,7.62-18.64,5.27-5.08,11.58-7.62,18.92-7.62,13.55,0,22.03,6.68,25.42,20.05,19.77-13.36,41.61-20.05,65.52-20.05h1.98Z"/>
        <path class="cls-1" d="m1554.55,345.37c7.34,0,13.55,2.54,18.64,7.62,5.27,5.27,7.91,11.49,7.91,18.64s-2.64,13.65-7.91,18.92-11.3,7.62-18.64,7.62h-.28c-32.38,0-60.06-11.48-83.02-34.45-22.97-22.97-34.45-50.64-34.45-83.02V26.26c0-7.15,2.54-13.36,7.62-18.64,5.27-5.08,11.58-7.62,18.92-7.62s13.37,2.54,18.64,7.62c5.08,5.27,7.62,11.49,7.62,18.64v87.54h42.64c7.34,0,13.55,2.54,18.64,7.62,5.27,5.08,7.91,11.3,7.91,18.64s-2.64,13.55-7.91,18.64c-5.08,5.27-11.3,7.91-18.64,7.91h-42.64v114.09c0,17.89,6.31,33.14,18.92,45.75,12.61,12.62,27.86,18.92,45.75,18.92h.28Z"/>
      </g>
      <path class="cls-2" d="m1601.02,383.04c0-4.15,1.45-7.71,4.34-10.68,2.89-2.97,6.49-4.45,10.8-4.45s7.68,1.48,10.57,4.45c2.9,2.97,4.34,6.53,4.34,10.68s-1.45,7.9-4.34,10.8c-2.89,2.89-6.42,4.34-10.57,4.34s-7.9-1.45-10.8-4.34c-2.89-2.89-4.34-6.49-4.34-10.8"/>
      <path class="cls-2" d="m1739.92,383.71c-5.34,4.75-11.32,8.35-17.92,10.8-6.6,2.45-13.47,3.67-20.59,3.67-8.01,0-15.58-1.52-22.7-4.56-7.12-3.04-13.36-7.23-18.7-12.58-5.34-5.34-9.54-11.57-12.58-18.7-3.04-7.12-4.56-14.69-4.56-22.7s1.52-15.8,4.56-22.93c3.04-7.12,7.23-13.32,12.58-18.59,5.34-5.27,11.57-9.46,18.7-12.58s14.69-4.67,22.7-4.67,15.8,1.56,22.93,4.67c7.12,3.12,13.32,7.31,18.59,12.58,5.27,5.27,9.42,11.46,12.46,18.59,3.04,7.12,4.56,14.77,4.56,22.93v48.52c0,2.82-.97,5.2-2.9,7.12-1.93,1.93-4.3,2.89-7.12,2.89s-5.19-.96-7.12-2.89c-1.93-1.93-2.89-4.3-2.89-7.12v-4.45Zm-38.51-82.58c-5.34,0-10.35,1-15.02,3.01-4.67,2-8.76,4.75-12.24,8.24-3.49,3.49-6.23,7.57-8.24,12.24-2,4.67-3.01,9.68-3.01,15.02s1,10.35,3.01,15.02c2,4.67,4.75,8.76,8.24,12.24,3.48,3.49,7.57,6.23,12.24,8.24,4.67,2,9.68,3.01,15.02,3.01s10.35-1,15.03-3.01c4.67-2,8.75-4.75,12.24-8.24,3.48-3.48,6.23-7.57,8.24-12.24,2-4.67,3.01-9.68,3.01-15.02s-1-10.35-3.01-15.02c-2-4.67-4.75-8.75-8.24-12.24-3.49-3.48-7.57-6.23-12.24-8.24-4.67-2-9.68-3.01-15.03-3.01Z"/>
      <path class="cls-2" d="m1773.08,245.92c0-4.3,1.45-7.9,4.34-10.8,2.89-2.89,6.49-4.34,10.8-4.34s7.68,1.45,10.57,4.34c2.89,2.89,4.34,6.49,4.34,10.8s-1.45,7.68-4.34,10.57c-2.89,2.89-6.42,4.34-10.57,4.34s-7.9-1.45-10.8-4.34c-2.89-2.89-4.34-6.42-4.34-10.57Zm25.15,142.23c0,2.82-.97,5.2-2.89,7.12-1.93,1.93-4.31,2.89-7.12,2.89s-5.2-.96-7.12-2.89c-1.93-1.93-2.9-4.3-2.9-7.12v-97.05c0-2.82.96-5.19,2.9-7.12,1.93-1.93,4.3-2.89,7.12-2.89s5.19.97,7.12,2.89c1.93,1.93,2.89,4.31,2.89,7.12v97.05Z"/>
    </g>
  </g>
</svg>
